<svg width="640" height="800" viewBox="0 0 640 800" xmlns="http://www.w3.org/2000/svg">
  <defs>
    <radialGradient id="bgGlowV" cx="50%" cy="5%" r="110%">
      <stop offset="0%" stop-color="#f7c8ff" stop-opacity="0.4"/>
      <stop offset="60%" stop-color="#2a1334" stop-opacity="0.92"/>
      <stop offset="100%" stop-color="#12091a" stop-opacity="1"/>
    </radialGradient>
    <linearGradient id="cloakV" x1="0%" y1="0%" x2="100%" y2="100%">
      <stop offset="0%" stop-color="#dba6ff" stop-opacity="0.92"/>
      <stop offset="70%" stop-color="#7f3d9e" stop-opacity="0.95"/>
      <stop offset="100%" stop-color="#472058" stop-opacity="0.95"/>
    </linearGradient>
    <linearGradient id="torsoV" x1="0%" y1="0%" x2="0%" y2="100%">
      <stop offset="0%" stop-color="#512a63"/>
      <stop offset="100%" stop-color="#281536"/>
    </linearGradient>
    <radialGradient id="haloV" cx="50%" cy="30%" r="45%">
      <stop offset="0%" stop-color="#ffd8ff" stop-opacity="0.65"/>
      <stop offset="100%" stop-color="#ffd8ff" stop-opacity="0"/>
    </radialGradient>
    <radialGradient id="emberV" cx="50%" cy="80%" r="60%">
      <stop offset="0%" stop-color="#ffb3ff" stop-opacity="0.38"/>
      <stop offset="100%" stop-color="#ffb3ff" stop-opacity="0"/>
    </radialGradient>
  </defs>
  <rect width="640" height="800" fill="#140b1d"/>
  <rect width="640" height="800" fill="url(#bgGlowV)"/>
  <ellipse cx="320" cy="400" rx="240" ry="280" fill="url(#haloV)"/>
  <ellipse cx="320" cy="620" rx="320" ry="180" fill="url(#emberV)"/>
  <ellipse cx="320" cy="360" rx="115" ry="150" fill="#5d3472"/>
  <path d="M140 490 L500 490 L540 760 L100 760 Z" fill="url(#torsoV)"/>
  <path d="M90 480 L200 340 L320 420 L440 340 L550 480 L500 650 L320 540 L140 650 Z" fill="url(#cloakV)"/>
  <g opacity="0.32">
    <rect x="150" width="18" height="800" fill="#ffccff"/>
    <rect x="320" width="16" height="800" fill="#ffccff"/>
    <rect x="490" width="12" height="800" fill="#ffccff"/>
  </g>
  <ellipse cx="320" cy="480" rx="260" ry="320" fill="url(#emberV)" opacity="0.25"/>
</svg>
