<svg width="640" height="800" viewBox="0 0 640 800" xmlns="http://www.w3.org/2000/svg">
  <defs>
    <radialGradient id="bgGlow" cx="50%" cy="0%" r="110%">
      <stop offset="0%" stop-color="#f5d19c" stop-opacity="0.32"/>
      <stop offset="55%" stop-color="#2a180d" stop-opacity="0.95"/>
      <stop offset="100%" stop-color="#120904" stop-opacity="1"/>
    </radialGradient>
    <linearGradient id="cloak" x1="0%" y1="0%" x2="100%" y2="100%">
      <stop offset="0%" stop-color="#d79a4a" stop-opacity="0.95"/>
      <stop offset="60%" stop-color="#7f4f21" stop-opacity="0.95"/>
      <stop offset="100%" stop-color="#523019" stop-opacity="0.92"/>
    </linearGradient>
    <linearGradient id="torso" x1="0%" y1="0%" x2="0%" y2="100%">
      <stop offset="0%" stop-color="#5a371d"/>
      <stop offset="100%" stop-color="#2b1a0f"/>
    </linearGradient>
    <radialGradient id="ember" cx="50%" cy="80%" r="60%">
      <stop offset="0%" stop-color="#ffce7b" stop-opacity="0.45"/>
      <stop offset="100%" stop-color="#ffce7b" stop-opacity="0"/>
    </radialGradient>
    <radialGradient id="halo" cx="50%" cy="25%" r="45%">
      <stop offset="0%" stop-color="#ffd9a0" stop-opacity="0.6"/>
      <stop offset="100%" stop-color="#ffd9a0" stop-opacity="0"/>
    </radialGradient>
  </defs>
  <rect width="640" height="800" fill="#160d06"/>
  <rect width="640" height="800" fill="url(#bgGlow)"/>
  <ellipse cx="320" cy="380" rx="220" ry="260" fill="url(#halo)"/>
  <ellipse cx="320" cy="610" rx="320" ry="170" fill="url(#ember)"/>
  <ellipse cx="320" cy="360" rx="120" ry="150" fill="#5d3c21"/>
  <path d="M120 480 L520 480 L560 760 L80 760 Z" fill="url(#torso)"/>
  <path d="M80 470 L180 350 L320 420 L460 350 L560 470 L520 640 L320 540 L120 640 Z" fill="url(#cloak)"/>
  <g opacity="0.28">
    <rect x="180" width="24" height="800" fill="#fcd093"/>
    <rect x="320" width="18" height="800" fill="#fcd093"/>
    <rect x="460" width="12" height="800" fill="#fcd093"/>
  </g>
  <ellipse cx="320" cy="460" rx="260" ry="320" fill="url(#ember)" opacity="0.2"/>
</svg>
